<svg xmlns="http://www.w3.org/2000/svg" xmlns:xlink="http://www.w3.org/1999/xlink" viewBox="0 0 480 228">
  <g id="Layer_0_Image" data-name="Layer 0 Image">
    <image id="Layer_0_Image-2" data-name="Layer 0 Image" width="640" height="304" transform="scale(0.75)" xlink:href="12C.01.03-shoeConfigurator-11.png"/>
  </g>
  <g id="shoe-sole" class="g_to_interact_with" style="isolation: isolate">
    <path d="M432,168.75l41.25-2.25v6c2.17,3.23,1,15.48-.75,18-1.2,1.7-4.71,3.77-6,6s-.36,5.07-2.25,6.75c-2.8,2.08-5.57,0-8.25,1.5-5.12,2.87-5.55,9.7-12.75,10.5-3-4.18-5.8-6.21-13.5-6L429,213c-2.55,1.16-3.07,2-6.75,2.25-1.92-2.4-3.29-1.74-3.75-6H408c-1.59,3.66-3.12,5.79-8.25,6-1.48-2.62-2.95-1.51-3.75-5.25H384.75c-.93,3.66-3.26,5-7.5,5.25-1.44-3.24-3.14-1.52-3.75-6h-9.75c-.92,3.81-3.06,5.69-7.5,6-1.1-2.86-.88-.67-3-2.25-.83-.62-.74-3.24-1.5-3.75h-10.5l-1.5,4.5-6,.75c-1.13-1.39-2.08-1.29-3-3-.56-.8-.45-.71-.75-2.25h-9.75v3c-2.09,1.38-2.12,2.39-5.25,3-1.09-1.59-2.13-1.87-3-3.75-.56-.8-.45-.71-.75-2.25h-9c-1.32,3.42-2.37,5.54-6.75,6-1.89-4.76-4.85-5.59-12-5.25-.79,3.34-2.15,4.88-6,5.25-1.18-2.52-2.3-1.91-3-5.25h-9v3l-2.25.75a4.24,4.24,0,0,1-3.75.75c-5-3.83-2.72-4.76-12.75-4.5-1.37,4-2.26,5.82-7.5,6-3.29-4.6-6.57-5.51-15-5.25l-1.5,4.5-8.25.75c-2.38-4.19-6-4-12.75-3.75L201,216c-3.45.38-7.87,2.35-9.75,0l-.75-3.75h-9.75c-.81,3.08-2,3.37-3.75,5.25-2.26-.69-3-.7-6.75-.75-1.94-4.47-3.79-4.83-10.5-4.5-1.3,2.23-2.85,3.47-4.5,5.25a29,29,0,0,1-6.75-.75l-.75-2.25c-.56-.8-.45-.71-.75-2.25H136.5c-1.22,3.88-3.75,4-9,3.75-.77-.6-.21-.27-1.5-.75-1.12-3.37-.6-4.37-5.25-4.5-1.27-.86-3.67-.8-6-.75-1,3.81-2.81,4.51-7.5,4.5-.93-1.72-1.3-1.45-3-2.25-.06-1.9-.09-2.79-.75-3.75-1.06-.72-2.46-.73-4.5-.75-3.69-2.24-6.88,2.56-12,3-1.71-3-2.7-6.51-7.5-6.75-3.35-2.14-7.69,1.13-12,1.5-1.25-2.08-3.62-6.5-6-7.5-3.58-2.59-7.33-1.63-12.75-1.5-3.09-4.65-7-8.59-12.75-10.5H30.75v-.75C27.83,183,18.4,175.2,16.5,172.5h-.75V168c.66-1,.67-1.85.75-3.75a13.46,13.46,0,0,0,3-2.25c7.4,2.93,16.21,5.13,24.75,7.5l13.5.75c7.63,1.75,18.06,2,25.5,3.75l18.75.75c7,1.59,17.65,2.23,24,3.75l21-.75c15.45,3.42,52.1.88,65.25-2.25l8.25.75c16.48-4.58,34.5-1.58,51.75-5.25l15.75.75c7.42-2.62,15.44-1.5,21.75-3.75l6.75,1.5c10.71-2.11,19.54-1.41,33-1.5l.75.75c-.07,2.32-.11,4.75.75,6,2.75,1.79,10.83.85,15,.75,3.57-2.21,13.63-.75,18.75-.75,15.14,0,33.48,1.83,47.25-.75Z"  fill-rule="evenodd"/>
  </g>
  <g id="shoe-back-cap" class="g_to_interact_with" style="isolation: isolate">
    <path d="M474.75,78c.37,14.89,1.5,25.93,1.5,45v20.25l-2.25,1.5.75,7.5c-1.2,5.13-4.8,11.7-11.25,12-4.2,2.82-24.44,2.31-31.5,2.25V147.75c-26.41,0-53.41.72-78.75.75L354,150s-1.08,3.7-1.5,4.5l-2.25.75c-2,3.48,1.24,10.48-.75,13.5-1.61-1.08-5.48-.83-8.25-.75-.47-1.32-.14-.73-.75-1.5,3.15-8.22-1.74-10.21,0-15.75.46-1.47,3.1-3.32,3.75-4.5v-4.5c1.43-5.13,2.76-11.64,5.25-16.5,3.83-7.47,14.72-15.06,21.75-19.5,3.33-2.1,8.65.2,11.25-.75,1.64-.6,7-3.85,9-4.5h12.75c14.29-3.66,25.58-7.25,39.75-12,8.2-2.75,22.07-3.19,25.5-10.5l1.5,1.5c.28-1.56.18-1.44.75-2.25C472.63,77.85,473,77.83,474.75,78Z"  fill-rule="evenodd"/>
  </g>
  <g id="shoe-square" class="g_to_interact_with" style="isolation: isolate">
    <path d="M432,147.75V174h-1.5c-4.23,2.63-16.58.75-22.5.75l-57,.75c-2.15-6.39-.81-17.71-.75-25.5,3.51-1.86,10.08-1.59,15.75-1.5,3.55-2.22,13.65-.75,18.75-.75Z"  fill-rule="evenodd"/>
  </g>
  <g id="shoe-front-suede" class="g_to_interact_with" style="isolation: isolate">
    <path d="M144,130.5c4,.35,6.36,2.44,8.25,3,2.93.86,2.39-2.55,5.25-1.5v1.5c3,1.52,8.77,0,10.5.75.6.27,3.79,2.68,4.5,3,3.81,1.7,7.87,1,9.75,4.5-.42.53-1.08,0-.75,1.5h.75A66.15,66.15,0,0,0,195,151.5h3c3.35,2.37,4.9,8,8.25,10.5,2.64,1.95,5.52.76,7.5,2.25,2.54,1.91,6.8,9.47,8.25,12.75h-1.5c-4.12,2.88-12.7,2.06-18.75.75L165,178.5c-19.68,0-45.87,0-63-3.75-10.14-2.24-21-1-30-3C59.41,169,47.79,171,36,168l-17.25-6c-4.2-8.45-3.91-11.2-3.75-23.25l7.5-8.25c3.52-2.42,7.24-2.37,11.25-4.5,2.68-1.42,4.54-4.09,8.25-5.25.49,1.67,1,3.7,2.25,4.5,2,1.26,18.76,5.08,22.5,3.75v-1.5c.14,0,17.36,3.15,18,3L87,128.25c3.16-.93,13.43.56,15.75,1.5,2.56,1,15.87-2.07,18.75-.75v1.5l3.75.75c1-2.43.66-2,3.75-2.25,3.2,5.08,6.7.05,10.5,1.5V132l4.5.75Z" fill-rule="evenodd"/>
  </g>
  <g id="shoe-front-net" class="g_to_interact_with" style="isolation: isolate">
    <path d="M108,98.25v3c5.49,2.54,17.49,6.45,23.25,5.25,4.26-.89,15.11-3.53,22.5-2.25,11.18,1.93,23.12,0,32.25,1.5l18-2.25c2.56.57,7.16,2.31,10.5,3-.77.6-.21.27-1.5.75-.65.43-3,0-3,0-1.41,1.23-1.76,3.78-3,5.25-3,3.53-7.1.72-8.25,6.75-1.75.15-2.12.14-3,.75-8.84,3.15-10.53,13.77-19.5,15.75-.28,1.56-.18,1.44-.75,2.25-7.41-5.25-23.59-5.41-33-6.75-2.16-.31-3.31,1.34-4.5,1.5-.91.12-10.5-2.25-10.5-2.25-.6.77-.27.21-.75,1.5,0,0,.06.13-1.5.75.22-1.84.49-.36,0-2.25-4,.58-13.81,2.23-18.75,0-2.06-.93-4.64-3.13-9.75-2.25-13.11,2.27-39,2.39-53.25-3.75a29,29,0,0,1-2.25-5.25C52.53,114,65.57,112.92,78,108.75,87.63,105.52,95.65,99.06,108,98.25Z" fill-rule="evenodd"/>
    <path d="M119.25,132h1.5v.75C119.43,132.28,120,132.61,119.25,132Z" fill-rule="evenodd"/>
  </g>
  <g id="shoe-side-net" class="g_to_interact_with" style="isolation: isolate">
    <path d="M342.75,147.75c-.09,8.72-.58,12.53-3,20.25-7.58-1-16.51.06-23.25,1.5l-6.75-1.5v1.5c-2.73,1-8.49-1.75-11.25-.75A54.39,54.39,0,0,1,284.25,171c-1.54-1.9-4-2.31-5.25-4.5-.83-1.3-1-4.79,0-6.75,3-5.85,4-16.71,7.5-24l1.5.75v-.75c2.9-3,2.58-10.11,9-11.25,4.83,4.1,12.62,4.81,18.75,7.5,7.36,3.23,14.6,8.71,22.5,11.25,0,2.18-.72,1,0,2.25A8,8,0,0,0,342.75,147.75Z"  fill-rule="evenodd"/>
  </g>
  <g id="shoe-swirl" class="g_to_interact_with" style="isolation: isolate">
    <path d="M423.75,75.75c14.37-1,42.34-21.77,45.75,3.75-2.69.82-3.84,2.79-6,3.75-9.55,4.26-29,9.44-40.5,10.5v-1.5C421.53,89.93,423.62,81.39,423.75,75.75Z" fill-rule="evenodd"/>
    <path d="M210,166.5v-2.25c-4.41-2.71-7.65-6.94-11.25-10.5L198,151.5h-3c-3.43-1.54-12-6.23-13.5-9.75.59-1.17-.34-3.48.75-5.25,2-5.45,10.55-12.22,15-15.75l4.5-6.75c6.56-5.17,16.6-9.72,25.5-12.75,11.13-3.79,22-3.24,33.75-6,6.82-1.6,14.24-.12,20.25-1.5,9.32-2.14,19.48.4,27.75-1.5l26.25-.75c8.27-1.91,20.66-1.33,27.75-3,6.27-1.48,15.37-2.78,21.75-4.5h4.5c1.77-.76,1.16-1.85,4.5-2.25,1.28,2,1.9,1.87,2.25,5.25,2.34,3.16,1.06,7.63.75,12-22.86,11.26-58.52,7.8-86.25,16.5-10.8,3.39-16,12.19-24.75,17.25.06,8.45-4.43,22.38-6.75,27-1.71,3.41.48,8.55-1.5,9.75-3,3.19-8.19,1.06-13.5,2.25-13.43,3-27.18,3.09-42.75,3C218.9,171,215.41,167.24,210,166.5Z" fill-rule="evenodd"/>
  </g>
  <g id="shoe-upper-leather-piece" class="g_to_interact_with" style="isolation: isolate">
    <path d="M408,59.25c.28,1.56.18,1.44.75,2.25,3.13,2.14,4.45-.16,8.25.75,2.57.61,3.43,2.83,5.25,3.75l9,3H432c1,.84.54,2.06.75,3.75-20.26,10.6-53.23,10-75.75,16.5-6.8,2-15.85.85-21.75,2.25L309,92.25c-10.69,1.94-25.1.71-38.25,3-2.67.47-10.63-1.61-12.75-.75V96c-7.79,4-21.52,2.16-30.75,5.25-3.57,1.2-8.17,5.25-11.25,6-.63.15-17-3.18-19.5-3.75l-39.75-.75v-1.5l1.5-.75c2.46-1.89,5.28-2,8.25-1.5V96.75c5.27-.69,9.05-4,13.5-5.25,6.48-1.88,11.21,1.76,18,0,7.53-2,15-7.16,21.75-9.75,8.19-3.13,15.69,5.61,24,3C254.33,81.43,266.63,74.44,276,69c2.63-1.53,8.45-1.88,9.75-4.5V53.25c1.61-2.44,1.25-6.19,1.5-8.25,8.33-5.2,12.37-12.69,26.25-12.75,2,2.85,23.46,21.54,26.25,22.5L342,54c.63.24,2.37,2.08,3,2.25l3.75-.75c2,.69,4.8,3.7,6.75,4.5,5.72,2.33,22.2,6.52,30.75,4.5C393.4,62.81,400.91,60.24,408,59.25Z" fill-rule="evenodd"/>
    <path d="M366,106.5h3v.75c-6.67,6-15.19,9.63-19.5,18-2,3.89-4.06,19.21-6.75,21-6.72-6.14-35.29-18.61-45.75-21l.75-.75L297,123h.75c8.34-10.94,36.82-10.08,52.5-14.25C355.83,107.27,361.83,109.22,366,106.5Z"  fill-rule="evenodd"/>
  </g>
  <g id="shoe-leather-cap" class="g_to_interact_with" style="isolation: isolate">
    <path d="M470.25,66h2.25v1.5c2,3.16.61,7.62,1.5,10.5-3.83.08-1.56-.72-3.75,1.5V78c-3.39-2.68-4.1-8-7.5-10.5-8.1-6-17.36,3.78-29.25.75-3.51-.89-8-3.21-11.25-4.5s-5.84-.21-7.5-3a8.77,8.77,0,0,1-1.5-3.75c7.47-3.5,17.56-5.26,21.75-12,8-12.83-.89-24,23.25-24,1.7,2.92,4.68,5.9,6,9Z" fill-rule="evenodd"/>
  </g>
  <g id="shoe-puma-logo" class="g_to_interact_with" style="isolation: isolate">
    <path d="M286.5,42c1.64,2.47-.61,15.63-.75,22.5C277,69.21,267,74.93,258,78.75l-6.75,1.5c-2,1-5.24,3.8-7.5,4.5-8.31,2.58-15.81-6.14-24-3C213,84.34,205.53,89.58,198,91.5c-5.81,1.48-10-1.3-15-1.5v-.75h.75c.76-.5,2.65-.09,3.75-.75,19.61-11.73,47.84-22.42,70.5-33.75C264.48,51.51,284,45.32,286.5,42Z" fill-rule="evenodd"/>
  </g>
  <g id="shoe-suede-laces" class="g_to_interact_with" style="isolation: isolate">
    <path d="M181.5,93c-5.74-.14-7.87,2.54-12.75,3.75-3.23.81-11.46-.49-15.75,1.5L150,102c-.92.38-7.61-.1-9.75,0-1.8,3.08-1,3.66-6,3.75-5.09-2.13-25.53,3.8-26.25-8.25,5.84-3.25,12.21-1.86,18-4.5l3-3h5.25c1.52-.46,3.89-3.39,4.5-2.25,2.3,3.49.61,5.22,6.75,5.25,1.31-1.89,1.38-2,4.5-2.25.15-4.35.1-8.17-1.5-10.5,4.83-.29,5.88-2.18,9.75-3V79.5c4,2.59,5.18,5.22,12,5.25.77-.6.21-.27,1.5-.75-.09-2.24,0-12.43,2.25-13.5,3.66-2.6,12.15,2.35,18.75,3a13.46,13.46,0,0,1,2.25-3c-.5-3.61-1.77-5.17-3-9,10.05-4.21,11.79,1,22.5,0V59.25c1.56-.28,1.44-.18,2.25-.75.6-.88.58-1.26.75-3a8.77,8.77,0,0,1-1.5-3.75c3.94-1,4.3-2.65,9-3,1.18,1.37.66,1,3,1.5V52.5c4.58.08,7.07.61,10.5,0,1.13-2.1,1.53-3.72,1.5-7.5a8.17,8.17,0,0,1-3-3.75c4.89-1.4,2-2.86,9-3,2.73,2.82,7,3.13,12.75,3l.75-.75V36c2.15,0,1.94.7,2.25-3l-2.25-2.25a21.66,21.66,0,0,1,6.75-.75c3.29-2.31,10.13.93,15.75,1.5,1.09-1.59,2.13-1.87,3-3.75a14.88,14.88,0,0,1-3-9c2.68-.48,6-2.9,9.75-1.5,6,2.23,16,7.38,17.25,14.25-5.09,1.91-9.31,5.33-13.5,7.5-2.54,1.32-3.6-1.45-6,0C266.44,52.91,238.4,64.52,213,75.75,205.07,79.26,182.69,86.53,181.5,93Z" fill-rule="evenodd"/>
  </g>
  <g id="shoe-laces" class="g_to_interact_with" style="isolation: isolate">
    <path d="M273.75,15a21.85,21.85,0,0,1,9,1.5c-1.14,5.62,1,7.77,2.25,12.75-2.74.91-2.4,1.84-6,2.25-2.62-1.63-6.78-.89-9.75-2.25-2.3-1.05-2.64-4-4.5-5.25-1.26-.86-3.38-.66-4.5-1.5H261C264.79,18.59,270.08,20.71,273.75,15Z" fill-rule="evenodd"/>
    <path d="M246,28.5h9.75c1.57,3.66,4.89,3.05,6,7.5-1.05,1.74-.22,4.1-.75,5.25-5.87,5.38-10.38-1.11-15.75-2.25-1.48.82-3.76.4-6,.75a11.34,11.34,0,0,0-1.5,3c2.28,1.76,2.37,4,2.25,8.25-2.71,1.61-3.8,2.8-8.25,3-3.2-2.43-6.84-3.42-9.75-6h.75c1.24-2.16,2.4-4.52,5.25-5.25,2.18-1.4,6.77-.8,9-2.25-1.64-1.41-1.57-2.79-1.5-6C238.38,32.79,243.54,30.88,246,28.5Z" fill-rule="evenodd"/>
    <path d="M209.25,51c3.55-.11,5.51,0,6.75,2.25,1.14,1.42,1.34,2.69,1.5,5.25-2,1.25-2.47,2.35-5.25,3-3.54,2.26-11.09-2-12.75-4.5C202.47,55.28,207,53.59,209.25,51Z" fill-rule="evenodd"/>
    <path d="M182.25,62.25c5.6.89,7.7.78,12,3a55.94,55.94,0,0,0-1.5,6A24.29,24.29,0,0,1,181.5,73.5a47,47,0,0,0-3.75-6A12,12,0,0,0,182.25,62.25Z" fill-rule="evenodd"/>
    <path d="M165.75,70.5h6.75v.75c-1.78,3.61,1.22,10.69-2.25,12.75-1.27.86-3.67.8-6,.75-1.64-3.79-5-2.73-6-7.5h-.75l.75-.75C160.24,74,163.52,72.79,165.75,70.5Z"  fill-rule="evenodd"/>
    <path d="M150,81V91.5c-2.61,1.31-3.27,2.14-7.5,2.25-.8-.56-.71-.45-2.25-.75-.49-4.18-.89-4.89-.75-9a18.86,18.86,0,0,0,3.75-3Z" fill-rule="evenodd"/>
  </g>
  <g id="shoe-flip" class="g_to_interact_with" style="isolation: isolate">
    <path d="M336,1.5h6c4.36,7.44,15,29.5,10.5,42-.78,2.15-3.63,4.25-4.5,6-1,2,1.71,3.8-3.75,5.25-5.13,1.59-8.51-4.29-12.75-7.5-9.07-6.86-21.41-14.62-27-24.75,7.88-3.32,14.57-5.74,22.5-9,.62-1.45.48-4.08,1.5-6C329.72,5.21,334.29,3.68,336,1.5Z" fill-rule="evenodd"/>
  </g>
</svg>
